<mxfile host="app.diagrams.net" modified="2023-08-31T09:11:35.722Z" agent="Mozilla/5.0 (Windows NT 10.0; Win64; x64) AppleWebKit/537.36 (KHTML, like Gecko) Chrome/115.0.0.0 Safari/537.36" version="21.7.1" etag="rkWnL17V2ovNdDZyKg7M" type="github">
  <diagram name="第 1 页" id="7IjOdLnpX2iYeuIX9Jw_">
    <mxGraphModel>
      <root>
        <mxCell id="0" />
        <mxCell id="1" parent="0" />
      </root>
    </mxGraphModel>
  </diagram>
</mxfile>
